<?xml version="1.0" encoding="UTF-8" standalone="no"?>
<!DOCTYPE svg PUBLIC "-//W3C//DTD SVG 1.1//EN"
 "http://www.w3.org/Graphics/SVG/1.1/DTD/svg11.dtd">
<!-- Generated by graphviz version 2.43.0 (0)
 -->
<!-- Title: fx_graph Pages: 1 -->
<svg width="303pt" height="451pt"
 viewBox="0.00 0.00 303.00 451.00" xmlns="http://www.w3.org/2000/svg" xmlns:xlink="http://www.w3.org/1999/xlink">
<g id="graph0" class="graph" transform="scale(1 1) rotate(0) translate(4 447)">
<title>fx_graph</title>
<polygon fill="white" stroke="transparent" points="-4,4 -4,-447 299,-447 299,4 -4,4"/>
<!-- arg1_1 -->
<g id="node1" class="node">
<title>arg1_1</title>
<path fill="AliceBlue" stroke="black" d="M75,-350.5C75,-350.5 220,-350.5 220,-350.5 226,-350.5 232,-356.5 232,-362.5 232,-362.5 232,-430.5 232,-430.5 232,-436.5 226,-442.5 220,-442.5 220,-442.5 75,-442.5 75,-442.5 69,-442.5 63,-436.5 63,-430.5 63,-430.5 63,-362.5 63,-362.5 63,-356.5 69,-350.5 75,-350.5"/>
<text text-anchor="middle" x="147.5" y="-427.3" font-family="Times,serif" font-size="14.00" fill="#000000">name=%arg1_1</text>
<polyline fill="none" stroke="black" points="63,-419.5 232,-419.5 "/>
<text text-anchor="middle" x="147.5" y="-404.3" font-family="Times,serif" font-size="14.00" fill="#000000">op_code=placeholder</text>
<polyline fill="none" stroke="black" points="63,-396.5 232,-396.5 "/>
<text text-anchor="middle" x="147.5" y="-381.3" font-family="Times,serif" font-size="14.00" fill="#000000">target=arg1_1</text>
<polyline fill="none" stroke="black" points="63,-373.5 232,-373.5 "/>
<text text-anchor="middle" x="147.5" y="-358.3" font-family="Times,serif" font-size="14.00" fill="#000000">num_users=1</text>
</g>
<!-- buf0 -->
<g id="node2" class="node">
<title>buf0</title>
<path fill="Coral" stroke="black" d="M12,-129.5C12,-129.5 283,-129.5 283,-129.5 289,-129.5 295,-135.5 295,-141.5 295,-141.5 295,-301.5 295,-301.5 295,-307.5 289,-313.5 283,-313.5 283,-313.5 12,-313.5 12,-313.5 6,-313.5 0,-307.5 0,-301.5 0,-301.5 0,-141.5 0,-141.5 0,-135.5 6,-129.5 12,-129.5"/>
<text text-anchor="middle" x="147.5" y="-298.3" font-family="Times,serif" font-size="14.00" fill="#000000">name=%buf0</text>
<polyline fill="none" stroke="black" points="0,-290.5 295,-290.5 "/>
<text text-anchor="middle" x="147.5" y="-275.3" font-family="Times,serif" font-size="14.00" fill="#000000">op_code=call_function</text>
<polyline fill="none" stroke="black" points="0,-267.5 295,-267.5 "/>
<text text-anchor="middle" x="147.5" y="-252.3" font-family="Times,serif" font-size="14.00" fill="#000000">target=torch._inductor.debug.compute</text>
<polyline fill="none" stroke="black" points="0,-244.5 295,-244.5 "/>
<text text-anchor="middle" x="147.5" y="-229.3" font-family="Times,serif" font-size="14.00" fill="#000000">num_users=1</text>
<polyline fill="none" stroke="black" points="0,-221.5 295,-221.5 "/>
<text text-anchor="middle" x="147.5" y="-206.3" font-family="Times,serif" font-size="14.00" fill="#000000">dtype=None</text>
<polyline fill="none" stroke="black" points="0,-198.5 295,-198.5 "/>
<text text-anchor="middle" x="147.5" y="-183.3" font-family="Times,serif" font-size="14.00" fill="#000000">shape=((s0**2,), ())</text>
<polyline fill="none" stroke="black" points="0,-175.5 295,-175.5 "/>
<text text-anchor="middle" x="147.5" y="-160.3" font-family="Times,serif" font-size="14.00" fill="#000000">requires_grad=None</text>
<polyline fill="none" stroke="black" points="0,-152.5 295,-152.5 "/>
<text text-anchor="middle" x="147.5" y="-137.3" font-family="Times,serif" font-size="14.00" fill="#000000">stride=None</text>
</g>
<!-- arg1_1&#45;&gt;buf0 -->
<g id="edge1" class="edge">
<title>arg1_1&#45;&gt;buf0</title>
<path fill="none" stroke="black" d="M147.5,-350.5C147.5,-342.12 147.5,-333.05 147.5,-323.76"/>
<polygon fill="black" stroke="black" points="151,-323.6 147.5,-313.6 144,-323.6 151,-323.6"/>
</g>
<!-- output -->
<g id="node3" class="node">
<title>output</title>
<path fill="PowderBlue" stroke="black" d="M93,-0.5C93,-0.5 202,-0.5 202,-0.5 208,-0.5 214,-6.5 214,-12.5 214,-12.5 214,-80.5 214,-80.5 214,-86.5 208,-92.5 202,-92.5 202,-92.5 93,-92.5 93,-92.5 87,-92.5 81,-86.5 81,-80.5 81,-80.5 81,-12.5 81,-12.5 81,-6.5 87,-0.5 93,-0.5"/>
<text text-anchor="middle" x="147.5" y="-77.3" font-family="Times,serif" font-size="14.00" fill="#000000">name=%output</text>
<polyline fill="none" stroke="black" points="81,-69.5 214,-69.5 "/>
<text text-anchor="middle" x="147.5" y="-54.3" font-family="Times,serif" font-size="14.00" fill="#000000">op_code=output</text>
<polyline fill="none" stroke="black" points="81,-46.5 214,-46.5 "/>
<text text-anchor="middle" x="147.5" y="-31.3" font-family="Times,serif" font-size="14.00" fill="#000000">target=output</text>
<polyline fill="none" stroke="black" points="81,-23.5 214,-23.5 "/>
<text text-anchor="middle" x="147.5" y="-8.3" font-family="Times,serif" font-size="14.00" fill="#000000">num_users=0</text>
</g>
<!-- buf0&#45;&gt;output -->
<g id="edge2" class="edge">
<title>buf0&#45;&gt;output</title>
<path fill="none" stroke="black" d="M147.5,-129.44C147.5,-120.41 147.5,-111.45 147.5,-102.95"/>
<polygon fill="black" stroke="black" points="151,-102.84 147.5,-92.84 144,-102.84 151,-102.84"/>
</g>
</g>
</svg>
